FAIDC1_INITIAL_WALK01_kinetics.mot
nRows=27
nColumns=19

name FAIDC1_INITIAL_WALK01_kinetics.mot
datacolumns 19
datarows 27
range 0.5600000024 0.5730000138
endheader
time	ground_force_vx	ground_force_vy	ground_force_vz	ground_force_px	ground_force_py	ground_force_pz	1_ground_force_vx	1_ground_force_vy	1_ground_force_vz	1_ground_force_px	1_ground_force_py	1_ground_force_pz	ground_torque_x	ground_torque_y	ground_torque_z	1_ground_torque_x	1_ground_torque_y	1_ground_torque_z
        0.5600000024	        0.0000000000	        0.0000000000	        0.0000000000	        1.1111150980	        0.0000000000	        0.0550181195	      151.8307952881	      834.3903198242	       17.2041282654	        0.5558148026	        0.0000000000	       -0.0304971915	        0.0000000000	        0.0000000000	        0.0000000000	        0.0000000000	       -2.2305538654	        0.0000000000	
        0.5605000257	        0.0000000000	        0.0000000000	        0.0000000000	        1.1111150980	        0.0000000000	        0.0550181195	      152.4810485840	      833.6399536133	       17.1405925751	        0.5558972955	        0.0000000000	       -0.0304465387	        0.0000000000	        0.0000000000	        0.0000000000	        0.0000000000	       -2.2031688690	        0.0000000000	
        0.5609999895	        0.0000000000	        0.0000000000	        0.0000000000	        1.1111150980	        0.0000000000	        0.0550181195	      153.1309356689	      832.8659057617	       17.0788669586	        0.5559784770	        0.0000000000	       -0.0303981323	        0.0000000000	        0.0000000000	        0.0000000000	        0.0000000000	       -2.1758975983	        0.0000000000	
        0.5615000129	        0.0000000000	        0.0000000000	        0.0000000000	        1.1111150980	        0.0000000000	        0.0550181195	      153.7789459229	      832.0691528320	       17.0191001892	        0.5560584068	        0.0000000000	       -0.0303518940	        0.0000000000	        0.0000000000	        0.0000000000	        0.0000000000	       -2.1487193108	        0.0000000000	
        0.5619999766	        0.0000000000	        0.0000000000	        0.0000000000	        1.1111150980	        0.0000000000	        0.0550181195	      154.4236602783	      831.2507934570	       16.9613761902	        0.5561372638	        0.0000000000	       -0.0303076915	        0.0000000000	        0.0000000000	        0.0000000000	        0.0000000000	       -2.1216194630	        0.0000000000	
        0.5625000000	        0.0000000000	        0.0000000000	        0.0000000000	        1.1111150980	        0.0000000000	        0.0550181195	      155.0636749268	      830.4119873047	       16.9056911469	        0.5562154651	        0.0000000000	       -0.0302653573	        0.0000000000	        0.0000000000	        0.0000000000	        0.0000000000	       -2.0945935249	        0.0000000000	
        0.5630000234	        0.0000000000	        0.0000000000	        0.0000000000	        1.1111150980	        0.0000000000	        0.0550181195	      155.6977691650	      829.5540161133	       16.8519706726	        0.5562932491	        0.0000000000	       -0.0302246734	        0.0000000000	        0.0000000000	        0.0000000000	        0.0000000000	       -2.0676491261	        0.0000000000	
        0.5634999871	        0.0000000000	        0.0000000000	        0.0000000000	        1.1111150980	        0.0000000000	        0.0550181195	      156.3247680664	      828.6781616211	       16.8000545502	        0.5563711524	        0.0000000000	       -0.0301853977	        0.0000000000	        0.0000000000	        0.0000000000	        0.0000000000	       -2.0408074856	        0.0000000000	
        0.5640000105	        0.0000000000	        0.0000000000	        0.0000000000	        1.1111150980	        0.0000000000	        0.0550181195	      156.9437103271	      827.7856445313	       16.7497081757	        0.5564495325	        0.0000000000	       -0.0301472526	        0.0000000000	        0.0000000000	        0.0000000000	        0.0000000000	       -2.0141031742	        0.0000000000	
        0.5644999743	        0.0000000000	        0.0000000000	        0.0000000000	        1.1111150980	        0.0000000000	        0.0550181195	      157.5538024902	      826.8778076172	       16.7006282806	        0.5565290451	        0.0000000000	       -0.0301099475	        0.0000000000	        0.0000000000	        0.0000000000	        0.0000000000	       -1.9875856638	        0.0000000000	
        0.5649999976	        0.0000000000	        0.0000000000	        0.0000000000	        1.1111150980	        0.0000000000	        0.0550181195	      158.1543731689	      825.9556274414	       16.6524562836	        0.5566101074	        0.0000000000	       -0.0300731752	        0.0000000000	        0.0000000000	        0.0000000000	        0.0000000000	       -1.9613175392	        0.0000000000	
        0.5655000210	        0.0000000000	        0.0000000000	        0.0000000000	        1.1111150980	        0.0000000000	        0.0550181195	      158.7450103760	      825.0202636719	       16.6047878265	        0.5566933155	        0.0000000000	       -0.0300366282	        0.0000000000	        0.0000000000	        0.0000000000	        0.0000000000	       -1.9353748560	        0.0000000000	
        0.5659999847	        0.0000000000	        0.0000000000	        0.0000000000	        1.1111150980	        0.0000000000	        0.0550181195	      159.3254394531	      824.0725097656	       16.5571861267	        0.5567792058	        0.0000000000	       -0.0299999975	        0.0000000000	        0.0000000000	        0.0000000000	        0.0000000000	       -1.9098459482	        0.0000000000	
        0.5665000081	        0.0000000000	        0.0000000000	        0.0000000000	        1.1111150980	        0.0000000000	        0.0550181195	      159.8955383301	      823.1130371094	       16.5092029572	        0.5568682551	        0.0000000000	       -0.0299629774	        0.0000000000	        0.0000000000	        0.0000000000	        0.0000000000	       -1.8848309517	        0.0000000000	
        0.5669999719	        0.0000000000	        0.0000000000	        0.0000000000	        1.1111150980	        0.0000000000	        0.0550181195	      160.4553985596	      822.1422729492	       16.4603824615	        0.5569610000	        0.0000000000	       -0.0299252793	        0.0000000000	        0.0000000000	        0.0000000000	        0.0000000000	       -1.8604401350	        0.0000000000	
        0.5674999952	        0.0000000000	        0.0000000000	        0.0000000000	        1.1111150980	        0.0000000000	        0.0550181195	      161.0052490234	      821.1603393555	       16.4102802277	        0.5570577979	        0.0000000000	       -0.0298866238	        0.0000000000	        0.0000000000	        0.0000000000	        0.0000000000	       -1.8367934227	        0.0000000000	
        0.5680000186	        0.0000000000	        0.0000000000	        0.0000000000	        1.1111150980	        0.0000000000	        0.0550181195	      161.5454254150	      820.1672363281	       16.3584690094	        0.5571590066	        0.0000000000	       -0.0298467502	        0.0000000000	        0.0000000000	        0.0000000000	        0.0000000000	       -1.8140182495	        0.0000000000	
        0.5684999824	        0.0000000000	        0.0000000000	        0.0000000000	        1.1111150980	        0.0000000000	        0.0550181195	      162.0764007568	      819.1625366211	       16.3045539856	        0.5572649240	        0.0000000000	       -0.0298054237	        0.0000000000	        0.0000000000	        0.0000000000	        0.0000000000	       -1.7922475338	        0.0000000000	
        0.5690000057	        0.0000000000	        0.0000000000	        0.0000000000	        1.1111150980	        0.0000000000	        0.0550181195	      162.5987396240	      818.1456298828	       16.2481746674	        0.5573757887	        0.0000000000	       -0.0297624301	        0.0000000000	        0.0000000000	        0.0000000000	        0.0000000000	       -1.7716168165	        0.0000000000	
        0.5695000291	        0.0000000000	        0.0000000000	        0.0000000000	        1.1111150980	        0.0000000000	        0.0550181195	      163.1130676270	      817.1156616211	       16.1890087128	        0.5574916005	        0.0000000000	       -0.0297175813	        0.0000000000	        0.0000000000	        0.0000000000	        0.0000000000	       -1.7522610426	        0.0000000000	
        0.5699999928	       -1.6948128939	       29.8321647644	       -4.3749547005	        1.1111150980	        0.0000000000	        0.0550181195	      163.6200561523	      816.0715332031	       16.1267776489	        0.5576123595	        0.0000000000	       -0.0296707153	        0.0000000000	       -0.9617817998	        0.0000000000	        0.0000000000	       -1.7343105078	        0.0000000000	
        0.5705000162	       -1.1048582792	       31.3594684601	       -4.9873523712	        1.1111150980	        0.0000000000	        0.0550181195	      164.1204376221	      815.0117797852	       16.0612354279	        0.5577381253	        0.0000000000	       -0.0296217017	        0.0000000000	       -0.8076049685	        0.0000000000	        0.0000000000	       -1.7178864479	        0.0000000000	
        0.5709999800	       -0.4906838238	       32.9787788391	       -5.6198511124	        1.1111150980	        0.0000000000	        0.0550181195	      164.6149291992	      813.9349975586	       15.9921751022	        0.5578685999	        0.0000000000	       -0.0295704361	        0.0000000000	       -0.6697919369	        0.0000000000	        0.0000000000	       -1.7030961514	        0.0000000000	
        0.5715000033	        0.1491653919	       34.7130622864	       -6.2703900337	        1.1111150980	        0.0000000000	        0.0550181195	      165.1042633057	      812.8392944336	       15.9194192886	        0.5580036044	        0.0000000000	       -0.0295168385	        0.0000000000	       -0.5478513241	        0.0000000000	        0.0000000000	       -1.6900283098	        0.0000000000	
        0.5720000267	        0.8158820868	       36.5867347717	       -6.9364809990	        1.1126635075	        0.0000000000	        0.0643180236	      165.5891113281	      811.7227783203	       15.8428058624	        0.5581427217	        0.0000000000	       -0.0294608604	        0.0000000000	       -0.4410863519	        0.0000000000	        0.0000000000	       -1.6787486076	        0.0000000000	
        0.5724999905	        1.5102889538	       38.6252212524	       -7.6151676178	        1.1140118837	        0.0000000000	        0.0724792778	      166.0701751709	      810.5834960938	       15.7621822357	        0.5582855940	        0.0000000000	       -0.0294024739	        0.0000000000	       -0.3485600352	        0.0000000000	        0.0000000000	       -1.6692960262	        0.0000000000	
        0.5730000138	        2.2327377796	       40.8544921875	       -8.3029956818	        1.1151672602	        0.0000000000	        0.0794993043	      166.5480499268	      809.4193115234	       15.6773967743	        0.5584316254	        0.0000000000	       -0.0293416847	        0.0000000000	       -0.2690959275	       -0.0000000000	        0.0000000000	       -1.6616792679	        0.0000000000	
